<svg xmlns="http://www.w3.org/2000/svg" viewBox="0 0 1000 705.15"><defs><style>.cls-1{fill:#00985f;}</style></defs><title>vertical_logo</title><g id="Layer_2" data-name="Layer 2"><g id="Layer_1-2" data-name="Layer 1"><path class="cls-1" d="M526.35,1.73V237l0,0a18.58,18.58,0,0,1-18.61,18.41H479.65a2.52,2.52,0,0,0-2.52,2.53V455.1c6.94.64,14,1,21.07,1,126,0,228-102.11,228-228C726.24,111.62,639,15.59,526.35,1.73m-4.65,350.7a28.5,28.5,0,1,1,28.51-28.48,28.49,28.49,0,0,1-28.51,28.48m66.84,0A28.5,28.5,0,1,1,617,323.94a28.5,28.5,0,0,1-28.51,28.48m66.82,0a28.5,28.5,0,1,1,28.5-28.48,28.49,28.49,0,0,1-28.5,28.48"/><path class="cls-1" d="M498.2,0c-125.94,0-228,102.09-228,228,0,109.28,76.91,200.64,179.56,222.85V246.25a18.6,18.6,0,0,1,17.89-18.2h28.78a2.56,2.56,0,0,0,2.53-2.4V0h3.13c-1.28,0-2.59,0-3.88,0M454.49,188a28.5,28.5,0,1,1,28.5-28.5,28.5,28.5,0,0,1-28.5,28.5"/><polygon class="cls-1" points="971.43 590.15 971.43 633.26 913.54 633.26 913.54 590.15 884.96 590.15 884.96 704.03 913.54 704.03 913.54 658 971.43 658 971.43 704.03 1000 704.03 1000 590.15 971.43 590.15"/><path class="cls-1" d="M496,602.83a25.74,25.74,0,0,0-23.45-15.4h0a25.74,25.74,0,0,0-23.44,15.4L402.46,704h30.36L443,680h59.17l10.18,24h30.36Zm-43.36,54.37,17.58-41.37a2.44,2.44,0,0,1,2.31-1.62h0a2.43,2.43,0,0,1,2.32,1.62l17.58,41.37Z"/><path class="cls-1" d="M156.35,569.5c-13.37,0-21.89,7.13-28.23,21.47L90.89,676.69,53.66,591C47.34,576.63,38.8,569.5,25.43,569.5c-12.5,0-25.43,9-25.43,28.42V704H28.52V600.82l37.46,85c5,11.86,13.12,19.32,24.91,19.33h0c11.78,0,19.87-7.47,24.91-19.33l37.46-85V704h28.52V597.92c0-19.46-12.93-28.42-25.44-28.42"/><path class="cls-1" d="M231.77,680a2.46,2.46,0,0,1-2.44-2.45V657.19H300.5V634H229.33V616.65a2.45,2.45,0,0,1,2.44-2.44h70.39V590.14H217.73a17.06,17.06,0,0,0-17,17v79.95a17.06,17.06,0,0,0,17,17h84.43V680Z"/><path class="cls-1" d="M350.59,704V616.65A2.46,2.46,0,0,1,353,614.2h70.39V590.14H339a17.07,17.07,0,0,0-17,17V704Z"/><path class="cls-1" d="M866.07,646.88c0-39.86-17.16-58.48-60.38-58.48h-10c-43.25,0-60.37,18.62-60.4,58.48v.07c0,39.26,17.5,58.2,60.63,58.2h9.49c43.12,0,60.63-18.94,60.63-58.2Zm-60.81,34.69h-9.12c-23.83,0-33-10.73-33-34.58v-.12c0-23.13,8.08-34.49,33-34.49h9.12c24.21,0,33,11.36,33,34.49,0,0,0,.08,0,.12,0,23.85-9.37,34.58-33,34.58"/><path class="cls-1" d="M655.68,572.18H599.16c-42.18,0-59,21.35-59,58.57a96.9,96.9,0,0,0,1.18,16.13c4.46,26.36,20,42.54,59.45,42.54h12.43V704h28.49V689.42H654.1c39.48,0,55-16.18,59.44-42.54a96.85,96.85,0,0,0,1.19-16.13c0-37.22-16.86-58.57-59.05-58.57m-42.51,93.21H600.1c-19.32,0-26.27-7.2-30.53-18.52-1.65-4.33-1.63-9.83-1.63-16.1,0-24.3,11.22-34.58,27.67-34.58h17.56Zm72.1-18.52c-4.26,11.32-11.22,18.52-30.54,18.52H641.66V596.21h17.56c16.46,0,27.68,10.28,27.68,34.58,0,6.27,0,11.77-1.63,16.1"/></g></g></svg>